<svg width="22" height="22" viewBox="0 0 22 22" fill="none" xmlns="http://www.w3.org/2000/svg">
<path d="M12 6.99999V11H19C19.2652 11 19.5196 11.1053 19.7071 11.2929C19.8946 11.4804 20 11.7348 20 12V20H22V22H0V20H2V12C2 11.7348 2.10536 11.4804 2.29289 11.2929C2.48043 11.1053 2.73478 11 3 11H10V6.99999H12ZM18 13H4V20H18V13ZM12.83 0.401993C13.2278 1.09103 13.3356 1.90987 13.1297 2.67839C12.9238 3.44691 12.421 4.10216 11.732 4.49999L10 5.49999C9.60219 4.81096 9.49439 3.99212 9.7003 3.2236C9.90622 2.45508 10.409 1.79983 11.098 1.40199L12.83 0.401993Z" fill="white"/>
</svg>
