<svg width="20" height="21" viewBox="0 0 20 21" fill="none" xmlns="http://www.w3.org/2000/svg">
<path d="M6 5V8.999H9V5H11V8.999H14V5H16V8.999L17 9C17.7652 8.99996 18.5015 9.29233 19.0583 9.81728C19.615 10.3422 19.9501 11.0601 19.995 11.824L20 12V13C20 14.014 19.623 14.94 19.001 15.645L19 20C19 20.2652 18.8946 20.5196 18.7071 20.7071C18.5196 20.8946 18.2652 21 18 21H2C1.73478 21 1.48043 20.8946 1.29289 20.7071C1.10536 20.5196 1 20.2652 1 20V15.64C0.462668 15.0278 0.123739 14.2669 0.0280001 13.458L0.00600005 13.205L4.66045e-09 13V12C-4.26217e-05 11.2348 0.292325 10.4985 0.817284 9.94174C1.34224 9.38499 2.06011 9.04989 2.824 9.005L3 9L4 8.999V5H6ZM7.002 15.641L6.948 15.704C6.2925 16.4197 5.39883 16.8722 4.434 16.977L4.204 16.995L4 17C3.655 17 3.32 16.956 3 16.874V19H17V16.874C16.3454 17.0423 15.6588 17.0422 15.0042 16.8739C14.3496 16.7055 13.7482 16.3743 13.256 15.911L13.106 15.761L13 15.644L12.893 15.762C12.2446 16.4428 11.3765 16.8727 10.442 16.976L10.2 16.996L10 17C8.95346 17.0015 7.9485 16.5905 7.203 15.856L7.053 15.699L7.002 15.641ZM17 11H3C2.75507 11 2.51866 11.09 2.33563 11.2527C2.15259 11.4155 2.03566 11.6397 2.007 11.883L2 12V12.971L2.003 13.118C2.0331 13.6272 2.25661 14.1057 2.62783 14.4555C2.99905 14.8053 3.48991 15.0001 4 15C4.47895 15.0008 4.94229 14.8297 5.30568 14.5177C5.66907 14.2057 5.90836 13.7736 5.98 13.3L5.995 13.147L6 12.971C6.036 11.723 7.827 11.678 7.989 12.837L7.999 12.971L8.003 13.118C8.03097 13.6259 8.25145 14.1041 8.61956 14.4553C8.98767 14.8064 9.47575 15.004 9.98444 15.008C10.4931 15.0119 10.9842 14.8219 11.3577 14.4765C11.7313 14.1312 11.9591 13.6564 11.995 13.149L12.007 12.867C12.131 11.711 13.869 11.711 13.993 12.867L14.005 13.149C14.0408 13.6537 14.2665 14.1261 14.6367 14.471C15.0069 14.8159 15.494 15.0077 16 15.0077C16.506 15.0077 16.9931 14.8159 17.3633 14.471C17.7335 14.1261 17.9592 13.6537 17.995 13.149L18 13V12C18 11.7551 17.91 11.5187 17.7473 11.3356C17.5845 11.1526 17.3603 11.0357 17.117 11.007L17 11ZM5 0C6.32 0.871 6.663 2.088 6.449 2.888C6.3461 3.2723 6.09474 3.59998 5.75024 3.79895C5.40574 3.99793 4.9963 4.0519 4.612 3.949C4.2277 3.8461 3.90002 3.59474 3.70105 3.25024C3.50207 2.90574 3.4481 2.4963 3.551 2.112C3.85 1.002 5 1.5 5 0ZM10 0C11.32 0.871 11.663 2.088 11.449 2.888C11.3461 3.2723 11.0947 3.59998 10.7502 3.79895C10.4057 3.99793 9.9963 4.0519 9.612 3.949C9.2277 3.8461 8.90002 3.59474 8.70105 3.25024C8.50207 2.90574 8.4481 2.4963 8.551 2.112C8.85 1.002 10 1.5 10 0ZM15 0C16.32 0.871 16.663 2.088 16.449 2.888C16.3461 3.2723 16.0947 3.59998 15.7502 3.79895C15.4057 3.99793 14.9963 4.0519 14.612 3.949C14.2277 3.8461 13.9 3.59474 13.701 3.25024C13.5021 2.90574 13.4481 2.4963 13.551 2.112C13.85 1.002 15 1.5 15 0Z" fill="white"/>
</svg>
