<svg width="36" height="39" viewBox="0 0 36 39" fill="none" xmlns="http://www.w3.org/2000/svg">
<path d="M27.875 21.375V23.25C27.875 28.4438 26.63 33.4594 24.2844 37.9613L23.8587 38.7488L20.5831 36.9225C22.7581 33.0225 23.9769 28.6538 24.1119 24.105L24.125 23.25V21.375H27.875ZM16.625 15.75H20.375V23.25L20.3656 23.9606C20.2239 29.0938 18.4572 34.0497 15.32 38.115L14.8869 38.6588L11.9806 36.2888C14.8426 32.7935 16.4712 28.4515 16.6137 23.9363L16.625 23.25V15.75ZM18.5 8.25001C20.9864 8.25001 23.371 9.23773 25.1291 10.9959C26.8873 12.754 27.875 15.1386 27.875 17.625H24.125C24.125 16.1332 23.5324 14.7024 22.4775 13.6475C21.4226 12.5926 19.9918 12 18.5 12C17.0081 12 15.5774 12.5926 14.5225 13.6475C13.4676 14.7024 12.875 16.1332 12.875 17.625V23.25C12.875 27.4406 11.3375 31.395 8.61686 34.4569L8.21936 34.8881L5.50436 32.3006C7.69803 30.0055 8.98106 26.9902 9.11373 23.8181L9.12498 23.25V17.625C9.12498 15.1386 10.1127 12.754 11.8709 10.9959C13.629 9.23773 16.0136 8.25001 18.5 8.25001ZM18.5 0.750009C22.9755 0.750009 27.2677 2.52791 30.4324 5.69258C33.5971 8.85726 35.375 13.1495 35.375 17.625V23.25C35.375 26.4338 34.9962 29.5688 34.2556 32.6063L33.995 33.6169L30.3762 32.6306C31.1112 29.9363 31.5256 27.1519 31.61 24.315L31.625 23.25V17.625C31.625 15.1891 30.9471 12.8013 29.6672 10.7288C28.3874 8.65623 26.556 6.98075 24.378 5.88983C22.2001 4.79892 19.7616 4.33561 17.3353 4.55177C14.909 4.76793 12.5908 5.65502 10.64 7.11376L7.96811 4.44001C10.9559 2.04616 14.6715 0.744331 18.5 0.750009ZM5.31498 7.09313L7.98873 9.76501C6.38061 11.9086 5.47072 14.4949 5.38248 17.1731L5.37498 17.625L5.38248 21.375C5.38248 23.475 4.88748 25.5056 3.95373 27.3319L3.66123 27.8756L0.404358 26.0156C1.11686 24.7688 1.53311 23.3775 1.61561 21.9225L1.63248 21.375V17.625C1.62136 13.7969 2.92088 10.0803 5.31498 7.09313Z" fill="white"/>
</svg>
