<svg width="18" height="22" viewBox="0 0 18 22" fill="none" xmlns="http://www.w3.org/2000/svg">
<path d="M9 18.9L13.95 13.95C14.9289 12.971 15.5955 11.7237 15.8656 10.3659C16.1356 9.00804 15.9969 7.60061 15.4671 6.32157C14.9373 5.04253 14.04 3.94932 12.8889 3.18018C11.7378 2.41104 10.3844 2.00052 9 2.00052C7.61557 2.00052 6.26222 2.41104 5.11109 3.18018C3.95996 3.94932 3.06275 5.04253 2.53292 6.32157C2.00308 7.60061 1.86442 9.00804 2.13445 10.3659C2.40449 11.7237 3.07111 12.971 4.05 13.95L9 18.9ZM9 21.728L2.636 15.364C1.37734 14.1053 0.520187 12.5017 0.172928 10.7559C-0.17433 9.01004 0.00390685 7.20044 0.685099 5.55591C1.36629 3.91139 2.51984 2.50579 3.99988 1.51686C5.47992 0.52793 7.21998 9.15527e-05 9 9.15527e-05C10.78 9.15527e-05 12.5201 0.52793 14.0001 1.51686C15.4802 2.50579 16.6337 3.91139 17.3149 5.55591C17.9961 7.20044 18.1743 9.01004 17.8271 10.7559C17.4798 12.5017 16.6227 14.1053 15.364 15.364L9 21.728ZM9 11C9.53044 11 10.0391 10.7893 10.4142 10.4142C10.7893 10.0392 11 9.53045 11 9.00001C11 8.46958 10.7893 7.96087 10.4142 7.5858C10.0391 7.21073 9.53044 7.00001 9 7.00001C8.46957 7.00001 7.96086 7.21073 7.58579 7.5858C7.21072 7.96087 7 8.46958 7 9.00001C7 9.53045 7.21072 10.0392 7.58579 10.4142C7.96086 10.7893 8.46957 11 9 11ZM9 13C7.93914 13 6.92172 12.5786 6.17158 11.8284C5.42143 11.0783 5 10.0609 5 9.00001C5 7.93915 5.42143 6.92173 6.17158 6.17159C6.92172 5.42144 7.93914 5.00001 9 5.00001C10.0609 5.00001 11.0783 5.42144 11.8284 6.17159C12.5786 6.92173 13 7.93915 13 9.00001C13 10.0609 12.5786 11.0783 11.8284 11.8284C11.0783 12.5786 10.0609 13 9 13Z" fill="#2E3C7D"/>
</svg>
