<svg width="37" height="39" viewBox="0 0 37 39" fill="none" xmlns="http://www.w3.org/2000/svg">
<path d="M2.375 38.25C1.87772 38.25 1.40081 38.0525 1.04918 37.7008C0.697544 37.3492 0.5 36.8723 0.5 36.375V2.625C0.5 2.12772 0.697544 1.65081 1.04918 1.29917C1.40081 0.947544 1.87772 0.75 2.375 0.75H28.625C29.1223 0.75 29.5992 0.947544 29.9508 1.29917C30.3025 1.65081 30.5 2.12772 30.5 2.625V8.25H26.75V4.5H4.25V34.5H26.75V30.75H30.5V36.375C30.5 36.8723 30.3025 37.3492 29.9508 37.7008C29.5992 38.0525 29.1223 38.25 28.625 38.25H2.375ZM26.75 27V21.375H13.625V17.625H26.75V12L36.125 19.5L26.75 27Z" fill="white"/>
</svg>
